<svg id="Layer_1" data-name="Layer 1" xmlns="http://www.w3.org/2000/svg" viewBox="0 0 1501 500"><defs><style>.cls-1{fill:#333;}.cls-2{fill:none;stroke:#fcfcfc;stroke-miterlimit:10;stroke-width:7px;}.cls-3,.cls-4,.cls-6,.cls-7{fill:#fff;}.cls-4{font-size:163.08px;}.cls-4,.cls-6,.cls-7{font-family:PTMono-Regular, PT Mono;}.cls-5{fill:#f15a24;}.cls-6{font-size:54px;}.cls-7{font-size:43px;}</style></defs><title>gitbanner</title><rect class="cls-1" width="1501" height="500"/><path class="cls-2" d="M174.38,236.73c-1.94,2.57-5.61,11.24,6.17,33.85,3.41,17.64-9.12,15.49,3.84,33.38a7,7,0,0,1,1.33,4.33c-.34,10.47.6,53.07,36.05,77.73,30.63,26.5,35.34,35.93,42.41,44.17a71.3,71.3,0,0,0,22.91,17.26c9.79,4.55,21,3.8,31.08,1.16a74.6,74.6,0,0,0,38.49-25A435.76,435.76,0,0,1,391.4,386c12.24-11.77,20.31-17.82,27.42-30.21,6.55-11.41,10.87-25.5,12.37-44.79A5.37,5.37,0,0,1,434,306.6c3.17-1.6,7.72-7.82,4.48-31.31,1-8.87,10.63-19.8,8.93-32.1a17.78,17.78,0,0,0-4.08-9.05c-2.9-3.42-8.53-12.15-7.2-27.17,1.76-20,7.65-70.67-29.45-110.72S273.6,8.49,202.93,109.79c-26.51,49.48-20.62,55.37-17.67,101.9-2.09,16.21-6,17.56-9,22.2C175.69,234.85,175.07,235.82,174.38,236.73Z" transform="translate(0)"/><path class="cls-3" d="M175.78,229.11c-.11,4.53,1.55,6.32,2.88,7.76a8.43,8.43,0,0,1,1.07,1.33,11,11,0,0,1,1.33,3.89c5.48,33.22,6.71,37.75,20.62,45.07,6.65,3.51,20.34,5.86,34,5.86,10.69,0,26.14-1.4,39-8.1,18.71-9.77,25.68-43.47,26-45.16,0-.17.57-4.2,9.12-4.2h.53c8.11,0,8.67,4,8.73,4.46.28,1.43,7.26,35.13,26,44.9,12.84,6.7,28.28,8.1,39,8.1,13.71,0,27.39-2.36,34.05-5.86,13.91-7.32,15.14-11.86,20.62-45.08a11.35,11.35,0,0,1,1.32-3.89,8.41,8.41,0,0,1,1.08-1.33c1.33-1.43,3-3.23,2.88-7.76,0-.75,0-2.1,0-3.58.06-2.26.11-4.81,0-6.18-.39-6.72-6.34-9.45-9.33-9.94-19.13-3.93-42.1-5.07-66.35-3.33l-1.26.09c-14.79,1.05-22.94,1.62-32.65,6-2.25,1-4.57,2.15-6.62,3.21a60,60,0,0,1-11.75,4.54l-3.32.71a18.8,18.8,0,0,1-5.8,0c-1-.21-2.18-.46-3.32-.71a60.28,60.28,0,0,1-11.76-4.54c-2-1.06-4.36-2.2-6.62-3.21-9.7-4.35-17.85-4.92-32.64-6l-1.27-.09c-24.25-1.73-47.25-.59-66.25,3.31-3.08.51-9,3.25-9.41,10-.09,1.38,0,3.92,0,6.18C175.77,227,175.8,228.36,175.78,229.11ZM331.13,228c.93-2.33,6.83-10.08,43.42-12.21,6.42-.37,11.86-.55,16.64-.55,21.57,0,28.44,3.88,32.52,10.13,2.45,3.74,4.11,11.57,4.13,16.53,0,10.84-2.13,30.1-17.16,37.39-6.89,3.33-17.21,5.32-27.62,5.32-20,0-35.93-6.78-42.69-18.15C326.15,242.56,331,228.38,331.13,228Zm-135.08-2.63c4.09-6.26,11-10.14,32.53-10.14,4.78,0,10.22.19,16.64.56,36.58,2.13,42.48,9.88,43.53,12.48.06.13,4.86,14.31-9.34,38.19-6.77,11.37-22.73,18.16-42.7,18.16-10.4,0-20.73-2-27.62-5.33-15-7.28-17.2-26.55-17.16-37.38C192,236.93,193.61,229.1,196.05,225.36Z" transform="translate(0)"/><path class="cls-3" d="M273.9,308s14.44-7.35,28.86,8.84a10.81,10.81,0,0,0,4.87,3.49l.62.18a9.21,9.21,0,0,0,9.82-3.08c3.56-4.14,16.2-15.42,26.5-7.07,0,0-15.31-2.36-25.91,8.83-4,5.29-9.84,3.93-13,2.36-1-.52-3-2.17-3.94-2.81C296.31,315.06,285.58,308,273.9,308Z" transform="translate(0)"/><path class="cls-3" d="M282.23,367.41a1.87,1.87,0,0,1,.38-3.52c3.55-.78,9.68-1.46,19.85-.84,19.44,1.18,25.3-.32,30,0,.78.05,1.51.12,2.17.2,1.84.23,2.09,2.44.59,3.52-4.23,3.05-13.05,6.82-23.08,7.18C298.19,374.45,289.8,371.59,282.23,367.41Z" transform="translate(0)"/><text class="cls-4" transform="translate(644.73 223.09)">Gerry</text><rect class="cls-5" x="1145.98" y="110.16" width="54.75" height="112.53"/><text class="cls-6" transform="translate(517.74 333.76)">Software + Cloud + DevOps</text><text class="cls-7" transform="translate(677.63 405.43)">www.gerryaballa.com</text></svg>