<svg id="Layer_1" data-name="Layer 1" xmlns="http://www.w3.org/2000/svg" width="1500" height="700" viewBox="0 0 1500 700"><defs><style>.cls-1{fill:none;stroke:#fcfcfc;stroke-miterlimit:10;stroke-width:7px;}.cls-2,.cls-3,.cls-5,.cls-6{fill:#fff;}.cls-3{font-size:191.64px;}.cls-3,.cls-5,.cls-6{font-family:PTMono-Regular, PT Mono;}.cls-4{fill:#f15a24;}.cls-5{font-size:63.79px;}.cls-6{font-size:53.16px;}</style></defs><title>gitbanner</title><rect y="0.7" width="1501" height="701.67"/><g id="head"><path class="cls-1" d="M110.24,335.9c-2.06,2.72-6,11.94,6.55,36,3.63,18.76-9.69,16.47,4.09,35.49a7.47,7.47,0,0,1,1.41,4.61c-.35,11.12.64,56.41,38.34,82.63,32.56,28.18,37.57,38.2,45.08,47a75.8,75.8,0,0,0,24.36,18.35c10.41,4.84,22.33,4,33,1.23A79.3,79.3,0,0,0,304,534.6a464.45,464.45,0,0,1,36.93-40c13-12.51,21.6-18.95,29.15-32.11,7-12.14,11.57-27.12,13.15-47.62a5.73,5.73,0,0,1,3-4.7c3.37-1.7,8.21-8.32,4.76-33.29,1.05-9.43,11.3-21.05,9.49-34.13a18.88,18.88,0,0,0-4.33-9.62c-3.08-3.64-9.07-12.92-7.66-28.88,1.88-21.29,8.14-75.14-31.31-117.72s-141.51-93.3-216.65,14.4c-28.18,52.6-21.92,58.86-18.79,108.33-2.22,17.23-6.42,18.67-9.53,23.6C111.63,333.9,111,334.93,110.24,335.9Z"/><path class="cls-2" d="M111.73,327.79c-.12,4.82,1.64,6.72,3.06,8.25a8.93,8.93,0,0,1,1.14,1.41,11.8,11.8,0,0,1,1.41,4.14c5.82,35.32,7.14,40.13,21.92,47.92,7.08,3.73,21.63,6.23,36.21,6.23,11.36,0,27.78-1.5,41.44-8.62,19.89-10.38,27.3-46.21,27.65-48,0-.18.6-4.46,9.69-4.46h.57c8.62,0,9.21,4.28,9.28,4.74.3,1.52,7.72,37.35,27.61,47.73,13.65,7.13,30.07,8.62,41.44,8.62,14.57,0,29.12-2.51,36.2-6.23,14.79-7.79,16.1-12.61,21.92-47.93a12,12,0,0,1,1.41-4.13,9.46,9.46,0,0,1,1.14-1.42c1.42-1.52,3.18-3.43,3.06-8.25,0-.8,0-2.24.05-3.81.06-2.4.11-5.11,0-6.57-.42-7.14-6.74-10-9.92-10.57-20.34-4.17-44.76-5.38-70.53-3.53l-1.35.09c-15.72,1.12-24.39,1.73-34.71,6.35-2.39,1.07-4.86,2.29-7,3.41A64.34,64.34,0,0,1,260.92,318c-1.22.27-2.45.53-3.53.75a20,20,0,0,1-6.17,0c-1.09-.22-2.31-.48-3.53-.75a64.59,64.59,0,0,1-12.49-4.83c-2.18-1.12-4.64-2.34-7-3.41-10.32-4.62-19-5.23-34.71-6.35l-1.34-.09c-25.79-1.85-50.24-.63-70.44,3.52-3.28.54-9.59,3.44-10,10.59-.09,1.46,0,4.16,0,6.56C111.71,325.55,111.75,327,111.73,327.79Zm165.16-1.19c1-2.48,7.26-10.71,46.16-13,6.82-.39,12.61-.59,17.69-.59,22.94,0,30.24,4.13,34.58,10.78,2.6,4,4.37,12.3,4.39,17.57,0,11.52-2.27,32-18.25,39.75-7.32,3.54-18.3,5.66-29.36,5.66-21.23,0-38.2-7.22-45.39-19.3C271.6,342.09,276.7,327,276.89,326.6Zm-143.61-2.8c4.35-6.65,11.65-10.77,34.58-10.77,5.08,0,10.87.19,17.69.59,38.89,2.27,45.17,10.5,46.28,13.26.06.14,5.17,15.22-9.93,40.61-7.19,12.08-24.16,19.3-45.39,19.3-11.07,0-22-2.12-29.37-5.66-16-7.74-18.29-28.22-18.24-39.75C128.92,336.1,130.68,327.78,133.28,323.8Z"/><path class="cls-2" d="M216,411.64s15.35-7.81,30.68,9.4a11.47,11.47,0,0,0,5.18,3.71l.66.2A9.8,9.8,0,0,0,263,421.66c3.79-4.39,17.22-16.38,28.18-7.51,0,0-16.28-2.51-27.55,9.39-4.22,5.62-10.46,4.18-13.78,2.51-1.09-.56-3.17-2.3-4.19-3C239.87,419.17,228.46,411.64,216,411.64Z"/><path class="cls-2" d="M224.9,474.82a2,2,0,0,1,.41-3.74c3.76-.83,10.29-1.54,21.1-.89,20.66,1.25,26.9-.34,31.93,0,.84.06,1.61.13,2.32.22,1.94.23,2.22,2.59.63,3.74-4.51,3.24-13.89,7.24-24.55,7.62C241.87,482.31,233,479.27,224.9,474.82Z"/></g><text class="cls-3" transform="translate(586.91 313.9)">Gerry</text><rect class="cls-4" x="1175.92" y="181.19" width="64.34" height="132.23"/><text class="cls-5" transform="translate(435.17 447.14)">Software + Cloud + DevOps</text><text class="cls-6" transform="translate(626.54 536.5)">www.aboutgerry.com</text></svg>