<svg id="Layer_1" data-name="Layer 1" xmlns="http://www.w3.org/2000/svg" viewBox="0 0 1500 700"><defs><style>.cls-1{fill:none;stroke:#fcfcfc;stroke-miterlimit:10;stroke-width:7px;}.cls-2{fill:#fff;}.cls-3{fill:#f15a24;}</style></defs><title>gitbanner</title><rect y="0.7" width="1501" height="701.67"/><g id="head"><path class="cls-1" d="M110.24,335.9c-2.06,2.72-6,11.94,6.55,36,3.63,18.76-9.69,16.47,4.09,35.49a7.47,7.47,0,0,1,1.41,4.61c-.35,11.12.64,56.41,38.34,82.63,32.56,28.18,37.57,38.2,45.08,47a75.8,75.8,0,0,0,24.36,18.35c10.41,4.84,22.33,4,33,1.23A79.3,79.3,0,0,0,304,534.6a464.45,464.45,0,0,1,36.93-40c13-12.51,21.6-18.95,29.15-32.11,7-12.14,11.57-27.12,13.15-47.62a5.73,5.73,0,0,1,3-4.7c3.37-1.7,8.21-8.32,4.76-33.29,1.05-9.43,11.3-21.05,9.49-34.13a18.88,18.88,0,0,0-4.33-9.62c-3.08-3.64-9.07-12.92-7.66-28.88,1.88-21.29,8.14-75.14-31.31-117.72s-141.51-93.3-216.65,14.4c-28.18,52.6-21.92,58.86-18.79,108.33-2.22,17.23-6.42,18.67-9.53,23.6C111.63,333.9,111,334.93,110.24,335.9Z"/><path class="cls-2" d="M111.73,327.79c-.12,4.82,1.64,6.72,3.06,8.25a8.93,8.93,0,0,1,1.14,1.41,11.8,11.8,0,0,1,1.41,4.14c5.82,35.32,7.14,40.13,21.92,47.92,7.08,3.73,21.63,6.23,36.21,6.23,11.36,0,27.78-1.5,41.44-8.62,19.89-10.38,27.3-46.21,27.65-48,0-.18.6-4.46,9.69-4.46h.57c8.62,0,9.21,4.28,9.28,4.74.3,1.52,7.72,37.35,27.61,47.73,13.65,7.13,30.07,8.62,41.44,8.62,14.57,0,29.12-2.51,36.2-6.23,14.79-7.79,16.1-12.61,21.92-47.93a12,12,0,0,1,1.41-4.13,9.46,9.46,0,0,1,1.14-1.42c1.42-1.52,3.18-3.43,3.06-8.25,0-.8,0-2.24.05-3.81.06-2.4.11-5.11,0-6.57-.42-7.14-6.74-10-9.92-10.57-20.34-4.17-44.76-5.38-70.53-3.53l-1.35.09c-15.72,1.12-24.39,1.73-34.71,6.35-2.39,1.07-4.86,2.29-7,3.41A64.34,64.34,0,0,1,260.92,318c-1.22.27-2.45.53-3.53.75a20,20,0,0,1-6.17,0c-1.09-.22-2.31-.48-3.53-.75a64.59,64.59,0,0,1-12.49-4.83c-2.18-1.12-4.64-2.34-7-3.41-10.32-4.62-19-5.23-34.71-6.35l-1.34-.09c-25.79-1.85-50.24-.63-70.44,3.52-3.28.54-9.59,3.44-10,10.59-.09,1.46,0,4.16,0,6.56C111.71,325.55,111.75,327,111.73,327.79Zm165.16-1.19c1-2.48,7.26-10.71,46.16-13,6.82-.39,12.61-.59,17.69-.59,22.94,0,30.24,4.13,34.58,10.78,2.6,4,4.37,12.3,4.39,17.57,0,11.52-2.27,32-18.25,39.75-7.32,3.54-18.3,5.66-29.36,5.66-21.23,0-38.2-7.22-45.39-19.3C271.6,342.09,276.7,327,276.89,326.6Zm-143.61-2.8c4.35-6.65,11.65-10.77,34.58-10.77,5.08,0,10.87.19,17.69.59,38.89,2.27,45.17,10.5,46.28,13.26.06.14,5.17,15.22-9.93,40.61-7.19,12.08-24.16,19.3-45.39,19.3-11.07,0-22-2.12-29.37-5.66-16-7.74-18.29-28.22-18.24-39.75C128.92,336.1,130.68,327.78,133.28,323.8Z"/><path class="cls-2" d="M216,411.64s15.35-7.81,30.68,9.4a11.47,11.47,0,0,0,5.18,3.71l.66.2A9.8,9.8,0,0,0,263,421.66c3.79-4.39,17.22-16.38,28.18-7.51,0,0-16.28-2.51-27.55,9.39-4.22,5.62-10.46,4.18-13.78,2.51-1.09-.56-3.17-2.3-4.19-3C239.87,419.17,228.46,411.64,216,411.64Z"/><path class="cls-2" d="M224.9,474.82a2,2,0,0,1,.41-3.74c3.76-.83,10.29-1.54,21.1-.89,20.66,1.25,26.9-.34,31.93,0,.84.06,1.61.13,2.32.22,1.94.23,2.22,2.59.63,3.74-4.51,3.24-13.89,7.24-24.55,7.62C241.87,482.31,233,479.27,224.9,474.82Z"/></g><path class="cls-2" d="M670.65,193a81.08,81.08,0,0,0-16-1.34,43.78,43.78,0,0,0-15.48,2.78,32.28,32.28,0,0,0-13.07,9.29q-5.67,6.53-9,17.06t-3.36,26.06q0,28.37,10.48,41.78T654.49,302q12.3,0,21-4.79V259.85H647.66V247h41.39v59a37.49,37.49,0,0,1-7.38,4.21,64.15,64.15,0,0,1-9.19,3.26,74.55,74.55,0,0,1-10.16,2,80.73,80.73,0,0,1-10.25.67,60.64,60.64,0,0,1-23-4.12,43.29,43.29,0,0,1-17.25-12.64q-7.1-8.54-10.92-21.66t-3.83-30.95q0-18.58,4.79-31.81t12.64-21.56a47.77,47.77,0,0,1,18-12.17,58.79,58.79,0,0,1,20.89-3.83,119,119,0,0,1,19,1.24A60.34,60.34,0,0,1,685,182.05l-.19.76v32H670.65Z"/><path class="cls-2" d="M803.27,301.82a48,48,0,0,1-8.15,5.75,60.33,60.33,0,0,1-10.25,4.6,74.81,74.81,0,0,1-11.59,3,71,71,0,0,1-12.17,1.05,54.24,54.24,0,0,1-20.32-3.54A39.09,39.09,0,0,1,726,302.49a44.26,44.26,0,0,1-9-15.81A65,65,0,0,1,714,266a63.54,63.54,0,0,1,3.36-21.47A41.47,41.47,0,0,1,727,228.81a42.06,42.06,0,0,1,15.33-9.68,57.42,57.42,0,0,1,20.12-3.35,61.35,61.35,0,0,1,15.9,2.1,31.48,31.48,0,0,1,13.9,8q6,5.85,9.29,16.09t2.3,26.55h-74q0,17.25,9.27,25.77t24.75,8.53a42.25,42.25,0,0,0,10.23-1.25,83,83,0,0,0,9.65-3,50.46,50.46,0,0,0,8.13-3.83,35,35,0,0,0,5.44-3.83Zm-40.35-73.4A51.09,51.09,0,0,0,751,229.77a27.11,27.11,0,0,0-9.94,4.5,24.81,24.81,0,0,0-7.06,8.24,33.1,33.1,0,0,0-3.54,12.55h59.41q-1-12.65-8.12-19.64T762.92,228.42Z"/><path class="cls-2" d="M829.52,313.9V301.06h25.87V230.92H829.52V218.08h35.84l3.06,12.45h1A68.87,68.87,0,0,1,884,220.38q8-4.22,19.16-4.22,6.51,0,10.44,2.49a16.54,16.54,0,0,1,6.14,7.28,38.51,38.51,0,0,1,3,11.6,139.16,139.16,0,0,1,.76,15.42l-13.41.2q0-12.17-2.4-17.87a8.71,8.71,0,0,0-8.72-5.71,31.49,31.49,0,0,0-10.73,1.73,34.72,34.72,0,0,0-8.33,4.2,45.17,45.17,0,0,0-6,5,29.86,29.86,0,0,0-3.64,4.2v56.39h36.79V313.9Z"/><path class="cls-2" d="M944.5,313.9V301.06h25.87V230.92H944.5V218.08h35.84l3.06,12.45h1a68.87,68.87,0,0,1,14.57-10.15q8-4.22,19.16-4.22,6.51,0,10.45,2.49a16.58,16.58,0,0,1,6.13,7.28,38.22,38.22,0,0,1,3,11.6,139,139,0,0,1,.77,15.42l-13.42.2q0-12.17-2.4-17.87a8.7,8.7,0,0,0-8.71-5.71,31.51,31.51,0,0,0-10.74,1.73,34.72,34.72,0,0,0-8.33,4.2,45.17,45.17,0,0,0-6,5,30.54,30.54,0,0,0-3.64,4.2v56.39h36.79V313.9Z"/><path class="cls-2" d="M1106.43,299.14h7.29l23.76-81.06H1153l-26.63,86q-2.11,6.72-4.32,15.24a71.36,71.36,0,0,1-6.22,16A38.55,38.55,0,0,1,1104.9,348q-6.9,5.17-18,5.17a26.25,26.25,0,0,1-5.27-.57,54.69,54.69,0,0,1-5.46-1.44,37.08,37.08,0,0,1-5-2,13.76,13.76,0,0,1-3.45-2.3l5.37-13.8a15.75,15.75,0,0,0,3.16,1.92,27.48,27.48,0,0,0,4.41,1.62c1.59.45,3.16.83,4.69,1.15a19.46,19.46,0,0,0,3.84.48q14.37,0,19.54-24.33h-12.84l-40.24-95.82h17.25Z"/><rect class="cls-3" x="1175.92" y="181.19" width="64.34" height="132.23"/><path class="cls-2" d="M444.74,440.82a20.94,20.94,0,0,0,4.3,1.69,17.68,17.68,0,0,0,4.82.67,18.58,18.58,0,0,0,4-.41,9.64,9.64,0,0,0,3.22-1.34,7,7,0,0,0,2.17-2.33,6.63,6.63,0,0,0,.79-3.32,5.6,5.6,0,0,0-1.75-4.27,17.38,17.38,0,0,0-4.37-2.94q-2.62-1.27-5.68-2.48a34.71,34.71,0,0,1-5.68-2.87,16.14,16.14,0,0,1-4.37-4.05,10.06,10.06,0,0,1-1.75-6.1,10.46,10.46,0,0,1,1.05-4.72,10.19,10.19,0,0,1,3-3.57,14,14,0,0,1,4.62-2.26,21.06,21.06,0,0,1,6-.8,41.16,41.16,0,0,1,7,.54,19,19,0,0,1,5,1.44l.13-.07v.13h.06l-.06.19v10.21h-4.72v-6.83c-1.07-.25-2.23-.47-3.51-.64a31,31,0,0,0-4.08-.25,13.14,13.14,0,0,0-3.8.51,9.57,9.57,0,0,0-2.87,1.37,6.18,6.18,0,0,0-1.82,2,5,5,0,0,0-.63,2.42,5.48,5.48,0,0,0,1.75,4.15,17.8,17.8,0,0,0,4.37,3c1.74.87,3.64,1.73,5.68,2.58a35.33,35.33,0,0,1,5.67,3,16.31,16.31,0,0,1,4.37,4.05,9.56,9.56,0,0,1,1.76,5.87,12.26,12.26,0,0,1-1.05,5.16,11.63,11.63,0,0,1-3,4,13.77,13.77,0,0,1-4.79,2.55,21.49,21.49,0,0,1-6.41.89,26.9,26.9,0,0,1-4.59-.38,30.75,30.75,0,0,1-4-1,29.86,29.86,0,0,1-3.25-1.21c-1-.42-1.71-.79-2.27-1.08l.07-.19V433.74h4.72Z"/><path class="cls-2" d="M477.08,431.19q0-7.72,4-12.22t11.48-4.49a16.76,16.76,0,0,1,6.92,1.3,13.79,13.79,0,0,1,4.82,3.54,14.62,14.62,0,0,1,2.84,5.3,22.83,22.83,0,0,1,.92,6.57,22,22,0,0,1-1,6.92,14.31,14.31,0,0,1-3,5.26,13.1,13.1,0,0,1-4.88,3.35,17.3,17.3,0,0,1-6.6,1.18,16.68,16.68,0,0,1-6.89-1.31,13.49,13.49,0,0,1-4.85-3.54,14.5,14.5,0,0,1-2.84-5.29A22.83,22.83,0,0,1,477.08,431.19Zm5.29,0a18.83,18.83,0,0,0,.54,4.46,12.34,12.34,0,0,0,1.75,4,9.15,9.15,0,0,0,3.15,2.87,9.49,9.49,0,0,0,4.74,1.09q5.08,0,7.66-3.16c1.72-2.1,2.58-5.2,2.58-9.28a18.85,18.85,0,0,0-.54-4.5,12.16,12.16,0,0,0-1.78-4,9,9,0,0,0-7.92-4c-3.39,0-5.94,1-7.63,3.13S482.37,427.06,482.37,431.19Z"/><path class="cls-2" d="M517.33,447.14v-4.28h7.59V419.52h-7.59v-4.28h7.59v-1.78q0-6,3.13-8.68T537,402.1a24.93,24.93,0,0,1,3.76.26,16.25,16.25,0,0,1,3.57,1l-1.14,4.14a13.29,13.29,0,0,0-3.18-.92,19,19,0,0,0-2.79-.22q-4.19,0-5.72,2.07c-1,1.38-1.52,3.65-1.52,6.79h13.21v4.28H530v23.34h13.21v4.28Z"/><path class="cls-2" d="M552,415.24h7.59v-6.31l5-1.41v7.72h17v4.28h-17v15.05q0,4.65,2.25,6.89a8.8,8.8,0,0,0,6.46,2.23,10.92,10.92,0,0,0,5-1.08,28,28,0,0,0,3.85-2.36L583.8,444a18,18,0,0,1-5.33,2.87,19.12,19.12,0,0,1-6.34,1.09,15.49,15.49,0,0,1-4.82-.74,11.1,11.1,0,0,1-4-2.26,10.79,10.79,0,0,1-2.74-3.93,14.44,14.44,0,0,1-1-5.7V419.52H552Z"/><path class="cls-2" d="M609.89,422.26,616.27,440h.44l4.53-24.75h4.66l-6.25,31.9H614l-6.12-17.61h-.19l-6.38,17.61H595.6l-6.7-31.9h4.91L599,440.12h.38l6.19-17.86Z"/><path class="cls-2" d="M633.43,417.73a20.34,20.34,0,0,1,6.18-2.3,34.44,34.44,0,0,1,6.77-.7,12.07,12.07,0,0,1,5.32,1A8.74,8.74,0,0,1,655,418.4a9.46,9.46,0,0,1,1.59,3.7,20.93,20.93,0,0,1,.41,4.18c0,1.61,0,3.34-.12,5.16s-.15,3.66-.19,5.49A45,45,0,0,0,657,443h4.27v4.15h-8.42l-.57-4.79H652a16.93,16.93,0,0,1-1.15,1.47,10.56,10.56,0,0,1-2,1.75,12.49,12.49,0,0,1-7.26,2.14,11,11,0,0,1-7.49-2.42,8.41,8.41,0,0,1-2.75-6.64,9.6,9.6,0,0,1,1.44-5.42,9.17,9.17,0,0,1,4.13-3.32,19.1,19.1,0,0,1,6.49-1.34,45.07,45.07,0,0,1,8.55.51,22.66,22.66,0,0,0,.09-4.88,6.79,6.79,0,0,0-1-3.09,4.3,4.3,0,0,0-2.24-1.63,11.72,11.72,0,0,0-3.56-.47,18.85,18.85,0,0,0-5.5.79c-1.75.53-3.31,1.08-4.67,1.63Zm9.44,25.71a9.18,9.18,0,0,0,3.31-.58,10,10,0,0,0,2.68-1.46,9.81,9.81,0,0,0,1.92-1.95,9.55,9.55,0,0,0,1.15-2V433a35.56,35.56,0,0,0-6.13-.58A16.94,16.94,0,0,0,641,433a6.76,6.76,0,0,0-3.19,1.88,4.8,4.8,0,0,0-1.14,3.32,5.21,5.21,0,0,0,1.43,3.66C639,442.92,640.61,443.44,642.87,443.44Z"/><path class="cls-2" d="M669,447.14v-4.28h8.61V419.52H669v-4.28H681l1,4.15h.32a22.49,22.49,0,0,1,4.85-3.38,13.5,13.5,0,0,1,6.38-1.41,6.43,6.43,0,0,1,3.47.83,5.53,5.53,0,0,1,2,2.43,12.57,12.57,0,0,1,1,3.86,46.17,46.17,0,0,1,.26,5.13l-4.47.07A16.46,16.46,0,0,0,695,421a2.9,2.9,0,0,0-2.91-1.9,10.53,10.53,0,0,0-3.57.57,11.58,11.58,0,0,0-2.77,1.4,14.1,14.1,0,0,0-2,1.66,9.91,9.91,0,0,0-1.22,1.39v18.77h12.25v4.28Z"/><path class="cls-2" d="M736.83,443.12a16,16,0,0,1-2.71,1.91,19.28,19.28,0,0,1-3.41,1.53,24.26,24.26,0,0,1-3.86,1,23.93,23.93,0,0,1-4.06.35,18,18,0,0,1-6.76-1.18,13,13,0,0,1-4.91-3.38,14.73,14.73,0,0,1-3-5.26,21.74,21.74,0,0,1-1-6.89,21.09,21.09,0,0,1,1.12-7.15,13.93,13.93,0,0,1,3.22-5.23,14.1,14.1,0,0,1,5.1-3.22,19.18,19.18,0,0,1,6.7-1.11,20.31,20.31,0,0,1,5.3.7,10.46,10.46,0,0,1,4.62,2.65,12.53,12.53,0,0,1,3.09,5.35A24.85,24.85,0,0,1,737,432H712.4q0,5.75,3.08,8.58a11.72,11.72,0,0,0,8.24,2.84,14.09,14.09,0,0,0,3.41-.42,26.12,26.12,0,0,0,3.21-1,16.17,16.17,0,0,0,2.7-1.27,12.22,12.22,0,0,0,1.82-1.28ZM723.4,418.69a17.59,17.59,0,0,0-4,.44,9.06,9.06,0,0,0-3.3,1.5,8.23,8.23,0,0,0-2.36,2.75,11,11,0,0,0-1.17,4.17h19.77a9.83,9.83,0,0,0-2.7-6.54A8.59,8.59,0,0,0,723.4,418.69Z"/><path class="cls-2" d="M782.69,423.28h13.78v-14.1h4.59v14.1h13.78v4.59H801.06V442h-4.59v-14.1H782.69Z"/><path class="cls-2" d="M885.39,407.33a11.66,11.66,0,0,0-2.4-.67,19.05,19.05,0,0,0-3.16-.22,14.46,14.46,0,0,0-5.16,1,11.5,11.5,0,0,0-4.48,3.12,16.11,16.11,0,0,0-3.13,5.68,27.14,27.14,0,0,0-1.19,8.61,27.68,27.68,0,0,0,1.06,8,16.53,16.53,0,0,0,2.94,5.74,11.94,11.94,0,0,0,4.55,3.44,14.68,14.68,0,0,0,5.92,1.15,15.26,15.26,0,0,0,3.1-.29,13.68,13.68,0,0,0,2.65-.79v-6.38h4.73v8.61l.06.13a16.66,16.66,0,0,1-4.85,2.45,22.49,22.49,0,0,1-7.14,1,19.8,19.8,0,0,1-7.43-1.37,15.51,15.51,0,0,1-5.91-4.18,19.46,19.46,0,0,1-3.85-7.17,34.64,34.64,0,0,1-1.38-10.37,32,32,0,0,1,1.54-10.62A19.88,19.88,0,0,1,866,407a16,16,0,0,1,6.09-4.05,21.44,21.44,0,0,1,7.43-1.27,37.48,37.48,0,0,1,3.77.16,20.65,20.65,0,0,1,2.8.44,10.69,10.69,0,0,1,2.14.74,18.25,18.25,0,0,1,1.82,1h.06v10.08h-4.72Z"/><path class="cls-2" d="M898.92,402.48h10.65v33.94c0,2.59.43,4.42,1.31,5.49a4.71,4.71,0,0,0,3.86,1.59,10.11,10.11,0,0,0,3.63-.7,11.73,11.73,0,0,0,3.38-2l2.3,3.38a14,14,0,0,1-2.24,1.6,16.64,16.64,0,0,1-5.06,1.91,12.15,12.15,0,0,1-2.36.26,13.75,13.75,0,0,1-4.23-.61,7.09,7.09,0,0,1-3.1-1.95,8.66,8.66,0,0,1-1.89-3.54,19.63,19.63,0,0,1-.64-5.45V406.76h-5.61Z"/><path class="cls-2" d="M936.36,431.19q0-7.72,4-12.22t11.48-4.49a16.76,16.76,0,0,1,6.92,1.3,13.79,13.79,0,0,1,4.82,3.54,14.47,14.47,0,0,1,2.84,5.3,22.83,22.83,0,0,1,.92,6.57,22,22,0,0,1-1,6.92,14.31,14.31,0,0,1-3,5.26,13,13,0,0,1-4.88,3.35,17.3,17.3,0,0,1-6.6,1.18,16.68,16.68,0,0,1-6.89-1.31,13.58,13.58,0,0,1-4.85-3.54,14.33,14.33,0,0,1-2.83-5.29A22.49,22.49,0,0,1,936.36,431.19Zm5.3,0a18.32,18.32,0,0,0,.54,4.46,12.32,12.32,0,0,0,1.74,4,9.15,9.15,0,0,0,3.15,2.87,9.49,9.49,0,0,0,4.74,1.09c3.39,0,5.95-1.05,7.66-3.16s2.58-5.2,2.58-9.28a18.85,18.85,0,0,0-.54-4.5,12,12,0,0,0-1.78-4,9,9,0,0,0-7.92-4c-3.39,0-5.94,1-7.63,3.13S941.66,427.06,941.66,431.19Z"/><path class="cls-2" d="M994.09,415.24h9.12V437a46.21,46.21,0,0,0,.38,6h4.28v4.15h-8.55l-.19-5.43h-.25a13.49,13.49,0,0,1-4.39,4.47,12.17,12.17,0,0,1-6.62,1.72,16.15,16.15,0,0,1-5-.67,7.05,7.05,0,0,1-3.41-2.33,10.88,10.88,0,0,1-2-4.43,32,32,0,0,1-.63-6.92v-14h-4.28v-4.28h9.32v17.29a44,44,0,0,0,.22,4.69,10.59,10.59,0,0,0,.91,3.51,4.79,4.79,0,0,0,2.06,2.16,7.68,7.68,0,0,0,3.64.74,8.32,8.32,0,0,0,5.73-2.17,13.86,13.86,0,0,0,3.7-5.42V419.52h-4.08Z"/><path class="cls-2" d="M1031.47,402.48h10.4v33.75c0,.38,0,.86.06,1.43s.1,1.18.16,1.82.14,1.27.22,1.88.17,1.16.26,1.63h4.27v4.15h-8.54l-.64-4.92h-.26a11.27,11.27,0,0,1-4.16,4.06,12.45,12.45,0,0,1-6.4,1.62q-7.18,0-10.59-4t-3.41-12.6a20.47,20.47,0,0,1,1.15-7.11,13.78,13.78,0,0,1,3.27-5.17,14.19,14.19,0,0,1,5.13-3.15,19.3,19.3,0,0,1,6.68-1.09c.89,0,1.68,0,2.38.06s1.35.11,1.94.2a12,12,0,0,1,1.69.35l1.75.48v-9.06h-5.36Zm-3.8,41.15a8.79,8.79,0,0,0,6.11-2,10.8,10.8,0,0,0,3-6v-14.8a9.78,9.78,0,0,0-3.15-1.4,19.07,19.07,0,0,0-4.61-.45,10.73,10.73,0,0,0-8,3q-2.92,3-2.92,9.34a24.2,24.2,0,0,0,.47,4.88,11.19,11.19,0,0,0,1.59,3.93,8,8,0,0,0,3,2.61A9.67,9.67,0,0,0,1027.67,443.63Z"/><path class="cls-2" d="M1088.88,423.28h13.78v-14.1h4.59v14.1H1121v4.59h-13.78V442h-4.59v-14.1h-13.78Z"/><path class="cls-2" d="M1167.47,402.48c1.61-.21,3.3-.35,5.06-.41s3.26-.1,4.49-.1a25,25,0,0,1,9.7,1.66,16,16,0,0,1,6.31,4.63,18.34,18.34,0,0,1,3.43,7.11,37.08,37.08,0,0,1,1,9.12,39.41,39.41,0,0,1-1,8.71,20,20,0,0,1-3.31,7.4,16.79,16.79,0,0,1-6.34,5.17,22.69,22.69,0,0,1-10,1.94l-2.16,0c-.89,0-1.81-.06-2.74-.13s-1.82-.12-2.67-.16a13,13,0,0,1-1.91-.19Zm9.82,4.21c-.59,0-1.35,0-2.26.07a15,15,0,0,0-2.27.25v35.73a7.45,7.45,0,0,0,.93.09l1.24.06,1.25.07,1,0a16.17,16.17,0,0,0,7.56-1.53,11.3,11.3,0,0,0,4.5-4.12,16.4,16.4,0,0,0,2.17-5.93,41.16,41.16,0,0,0,.57-6.92,39.3,39.3,0,0,0-.51-6.28,15.56,15.56,0,0,0-2.07-5.71,12,12,0,0,0-4.46-4.18A15.62,15.62,0,0,0,1177.29,406.69Z"/><path class="cls-2" d="M1234.38,443.12a15.62,15.62,0,0,1-2.71,1.91,19.28,19.28,0,0,1-3.41,1.53,24.44,24.44,0,0,1-7.91,1.34,17.93,17.93,0,0,1-6.76-1.18,12.81,12.81,0,0,1-4.91-3.38,14.73,14.73,0,0,1-3-5.26,21.74,21.74,0,0,1-1-6.89,21.34,21.34,0,0,1,1.11-7.15,14,14,0,0,1,3.23-5.23,14.1,14.1,0,0,1,5.1-3.22,19.18,19.18,0,0,1,6.7-1.11,20.23,20.23,0,0,1,5.29.7,10.49,10.49,0,0,1,4.63,2.65,12.63,12.63,0,0,1,3.09,5.35,25.09,25.09,0,0,1,.77,8.84H1210q0,5.75,3.09,8.58a11.69,11.69,0,0,0,8.24,2.84,14,14,0,0,0,3.4-.42,25.59,25.59,0,0,0,3.21-1,16.67,16.67,0,0,0,2.71-1.27,12,12,0,0,0,1.81-1.28ZM1221,418.69a17.5,17.5,0,0,0-4,.44,9.18,9.18,0,0,0-3.31,1.5,8.21,8.21,0,0,0-2.35,2.75,10.85,10.85,0,0,0-1.18,4.17h19.78a9.84,9.84,0,0,0-2.71-6.54A8.56,8.56,0,0,0,1221,418.69Z"/><path class="cls-2" d="M1258.14,441h.7l10-25.71h5.55l-13.46,31.9h-5.55l-13.71-31.9h5.86Z"/><path class="cls-2" d="M1280.25,424.81q0-11.1,3.91-17.1t12.07-6a15.71,15.71,0,0,1,7.54,1.66,13.23,13.23,0,0,1,5,4.69,21.31,21.31,0,0,1,2.74,7.27,49.79,49.79,0,0,1,.82,9.47q0,11.1-3.91,17.1t-12.19,6a15.39,15.39,0,0,1-7.45-1.66,13.22,13.22,0,0,1-5-4.69,21,21,0,0,1-2.73-7.27A48.87,48.87,0,0,1,1280.25,424.81Zm5.55,0a49,49,0,0,0,.48,7,19.94,19.94,0,0,0,1.69,5.83,10.84,10.84,0,0,0,3.2,4,8.15,8.15,0,0,0,5.06,1.5,8.58,8.58,0,0,0,8-4.46q2.52-4.47,2.52-13.91a49.15,49.15,0,0,0-.48-7,19.94,19.94,0,0,0-1.69-5.87,10.52,10.52,0,0,0-3.27-4,9.32,9.32,0,0,0-13,3Q1285.8,415.43,1285.8,424.81Z"/><path class="cls-2" d="M1321.58,426.41q0-.59,0-1.5t-.09-1.92c0-.66-.1-1.31-.16-1.94s-.14-1.19-.23-1.66h-4.27v-4.15h8.48l.64,4.47h.32a14.33,14.33,0,0,1,4.37-3.73,12.93,12.93,0,0,1,6.47-1.5q6.83,0,10.27,3.76t3.45,12.31a21.1,21.1,0,0,1-1.18,7.24,15.37,15.37,0,0,1-3.35,5.46,14.94,14.94,0,0,1-5.23,3.44,18.19,18.19,0,0,1-6.76,1.21c-.9,0-1.69,0-2.4-.09s-1.34-.15-1.91-.26a16,16,0,0,1-1.69-.41c-.55-.17-1.15-.39-1.79-.64v13.39h-4.91Zm14.67-7.21a9.28,9.28,0,0,0-3.6.7,10.61,10.61,0,0,0-3,1.84,10.26,10.26,0,0,0-2.13,2.55,7.36,7.36,0,0,0-1,2.8v14.5a11.66,11.66,0,0,0,3.16,1.5,16.17,16.17,0,0,0,4.63.54,10.55,10.55,0,0,0,8.16-3.34q3.06-3.35,3.06-9.77,0-5.4-2.13-8.36C1341.94,420.18,1339.57,419.2,1336.25,419.2Z"/><path class="cls-2" d="M1381.61,438.53a3.63,3.63,0,0,0-1.59-3.16,13.05,13.05,0,0,0-3.94-1.79q-2.36-.68-5.12-1.24a29.54,29.54,0,0,1-5.12-1.53,11.45,11.45,0,0,1-3.95-2.59,6.23,6.23,0,0,1-1.59-4.56,7.7,7.7,0,0,1,1.06-4.14,8.74,8.74,0,0,1,2.77-2.84,12.55,12.55,0,0,1,4-1.66,20.78,20.78,0,0,1,4.78-.54,23.69,23.69,0,0,1,7.69,1.11,25.09,25.09,0,0,1,5.13,2.33l-2,4q-2.1-1.15-4.55-2.2a15.58,15.58,0,0,0-6.13-1.05,13.49,13.49,0,0,0-2.77.28,10.21,10.21,0,0,0-2.48.86,5.06,5.06,0,0,0-1.78,1.5,3.76,3.76,0,0,0-.67,2.27,2.79,2.79,0,0,0,1.59,2.55,16.16,16.16,0,0,0,4,1.5c1.56.4,3.27.79,5.12,1.15a24.88,24.88,0,0,1,5.12,1.56,11.7,11.7,0,0,1,3.94,2.74,6.6,6.6,0,0,1,1.59,4.66,9,9,0,0,1-3.48,7.27q-3.48,2.88-10.43,2.87a22.85,22.85,0,0,1-4.14-.38,26.08,26.08,0,0,1-3.83-1,22.84,22.84,0,0,1-3.26-1.44,14.09,14.09,0,0,1-2.42-1.62l2.55-4.15a11,11,0,0,0,2,1.56,18.84,18.84,0,0,0,2.8,1.44,20,20,0,0,0,3.28,1,16.74,16.74,0,0,0,3.53.38,17.2,17.2,0,0,0,3.21-.28,9.65,9.65,0,0,0,2.64-.9,4.83,4.83,0,0,0,1.81-1.59A4.22,4.22,0,0,0,1381.61,438.53Z"/><path class="cls-2" d="M644.56,515.77l5.31,14.78h.37L654,509.93h3.88l-5.21,26.57H648l-5.11-14.67h-.15l-5.32,14.67h-4.73l-5.58-26.57h4.09l4.31,20.73h.31l5.16-14.89Z"/><path class="cls-2" d="M676.45,515.77l5.32,14.78h.37l3.77-20.62h3.88l-5.21,26.57h-4.73l-5.1-14.67h-.16l-5.32,14.67h-4.73L659,509.93h4.09l4.31,20.73h.32l5.16-14.89Z"/><path class="cls-2" d="M708.34,515.77l5.32,14.78H714l3.78-20.62h3.88l-5.21,26.57h-4.73l-5.11-14.67h-.16l-5.31,14.67h-4.73l-5.58-26.57H695l4.3,20.73h.32l5.16-14.89Z"/><path class="cls-2" d="M734.6,533.58a3.27,3.27,0,0,1,3.51-3.56,3.65,3.65,0,0,1,2.66.93,3.5,3.5,0,0,1,1,2.63,3.54,3.54,0,0,1-1,2.55,3.46,3.46,0,0,1-2.66,1,3.33,3.33,0,0,1-2.55-1A3.54,3.54,0,0,1,734.6,533.58Z"/><path class="cls-2" d="M759.85,512a17.17,17.17,0,0,1,5.16-1.92,28.88,28.88,0,0,1,5.64-.58,10,10,0,0,1,4.43.85,7.06,7.06,0,0,1,2.71,2.21,7.69,7.69,0,0,1,1.33,3.08,17.71,17.71,0,0,1,.35,3.48c0,1.35,0,2.78-.11,4.31s-.12,3.05-.16,4.57a38.64,38.64,0,0,0,.32,5h3.56v3.45h-7l-.47-4h-.27a11.67,11.67,0,0,1-1,1.22,8.31,8.31,0,0,1-1.68,1.46,10.47,10.47,0,0,1-2.53,1.25,10.35,10.35,0,0,1-3.52.53,9.1,9.1,0,0,1-6.24-2,7,7,0,0,1-2.29-5.53,8,8,0,0,1,1.2-4.51,7.57,7.57,0,0,1,3.44-2.77,15.61,15.61,0,0,1,5.41-1.11,36.12,36.12,0,0,1,7.12.42,19,19,0,0,0,.08-4.07,5.53,5.53,0,0,0-.85-2.57,3.62,3.62,0,0,0-1.87-1.36,9.67,9.67,0,0,0-3-.4,15.49,15.49,0,0,0-4.59.67c-1.46.44-2.75.89-3.89,1.35Zm7.87,21.42a7.83,7.83,0,0,0,2.77-.48,8.37,8.37,0,0,0,2.23-1.22,8.09,8.09,0,0,0,1.59-1.62,7.51,7.51,0,0,0,1-1.68V524.7a29.84,29.84,0,0,0-5.1-.47,14.16,14.16,0,0,0-4,.5,5.64,5.64,0,0,0-2.66,1.57,4,4,0,0,0-1,2.76,4.38,4.38,0,0,0,1.2,3.06C764.51,533,765.84,533.42,767.72,533.42Z"/><path class="cls-2" d="M786.11,499.29h8.51V513h.26a9.06,9.06,0,0,1,3.57-2.71,11.59,11.59,0,0,1,4.73-1q11.69,0,11.69,13.5,0,6.86-3.77,10.5t-10.74,3.64a25.24,25.24,0,0,1-6-.64,11.62,11.62,0,0,1-3.88-1.49V502.86h-4.42Zm16.54,13.56a7.3,7.3,0,0,0-5.16,1.81,10.46,10.46,0,0,0-2.87,5.1V532a12,12,0,0,0,2.92,1,16.53,16.53,0,0,0,3.56.37,11.45,11.45,0,0,0,3.86-.61,7.41,7.41,0,0,0,2.95-1.92,8.85,8.85,0,0,0,1.89-3.32,15.46,15.46,0,0,0,.66-4.78,16.9,16.9,0,0,0-.42-3.83,9.42,9.42,0,0,0-1.36-3.16,6.46,6.46,0,0,0-2.42-2.13A7.83,7.83,0,0,0,802.65,512.85Z"/><path class="cls-2" d="M820.93,523.22q0-6.44,3.35-10.18t9.57-3.75a14,14,0,0,1,5.77,1.09,11.23,11.23,0,0,1,4,3,12.17,12.17,0,0,1,2.37,4.41,19,19,0,0,1,.77,5.48,18.54,18.54,0,0,1-.85,5.76,12.06,12.06,0,0,1-2.5,4.39,11.2,11.2,0,0,1-4.07,2.79,14.62,14.62,0,0,1-5.5,1,13.93,13.93,0,0,1-5.74-1.09,11.17,11.17,0,0,1-4-2.95,12.17,12.17,0,0,1-2.37-4.41A18.93,18.93,0,0,1,820.93,523.22Zm4.41,0a15.77,15.77,0,0,0,.45,3.72,10.53,10.53,0,0,0,1.46,3.35,7.56,7.56,0,0,0,2.63,2.39,8,8,0,0,0,3.94.9q4.24,0,6.39-2.63t2.15-7.73a15.16,15.16,0,0,0-.46-3.75,9.87,9.87,0,0,0-1.48-3.32,7.84,7.84,0,0,0-2.65-2.4,8,8,0,0,0-3.95-.9q-4.23,0-6.36,2.6T825.34,523.22Z"/><path class="cls-2" d="M869,509.93h7.6v18.12a38.21,38.21,0,0,0,.32,5h3.56v3.45H873.4l-.16-4.51H873a11.22,11.22,0,0,1-3.66,3.72,10.2,10.2,0,0,1-5.51,1.43,13.29,13.29,0,0,1-4.16-.56,5.81,5.81,0,0,1-2.84-1.94,9,9,0,0,1-1.64-3.69,25.94,25.94,0,0,1-.53-5.77V513.49h-3.56v-3.56h7.76v14.4a38,38,0,0,0,.18,3.91,8.64,8.64,0,0,0,.77,2.92,3.9,3.9,0,0,0,1.71,1.81,6.39,6.39,0,0,0,3,.61,7,7,0,0,0,4.78-1.81,11.52,11.52,0,0,0,3.08-4.51V513.49H869Z"/><path class="cls-2" d="M883.34,509.93h6.33v-5.27l4.19-1.17v6.44h14.2v3.56h-14.2V526q0,3.88,1.89,5.74a7.3,7.3,0,0,0,5.37,1.86,9.08,9.08,0,0,0,4.16-.9,22.67,22.67,0,0,0,3.21-2l1.38,3.14a15.18,15.18,0,0,1-4.44,2.39,16,16,0,0,1-5.29.91,12.91,12.91,0,0,1-4-.62,9.18,9.18,0,0,1-3.32-1.88,8.89,8.89,0,0,1-2.28-3.27,12.05,12.05,0,0,1-.85-4.76V513.49h-6.33Z"/><path class="cls-2" d="M941.44,537.83a9.56,9.56,0,0,1-1,4.39,8.52,8.52,0,0,1-2.63,3.11,12,12,0,0,1-3.9,1.83,18.23,18.23,0,0,1-4.84.61,21.23,21.23,0,0,1-5.48-.63,16.69,16.69,0,0,1-4-1.65l2-3.78a5.79,5.79,0,0,0,1.24.83,13.88,13.88,0,0,0,1.78.74,14.86,14.86,0,0,0,2.14.56,12.43,12.43,0,0,0,2.26.21,15.25,15.25,0,0,0,3.89-.42,5.94,5.94,0,0,0,2.52-1.33,5.16,5.16,0,0,0,1.38-2.34,12.68,12.68,0,0,0,.42-3.51v-3H937a8.3,8.3,0,0,1-3.13,2.72,11.1,11.1,0,0,1-4.93.95q-6,0-8.88-3.37t-2.84-10.5q0-6.81,3.62-10.29t10.74-3.48a29.82,29.82,0,0,1,5.6.45,27,27,0,0,1,4.23,1.15Zm-11.85-4.25a7.28,7.28,0,0,0,5.06-1.67,9.31,9.31,0,0,0,2.59-5.13v-12.6a15.2,15.2,0,0,0-6.49-1.12,8.88,8.88,0,0,0-6.66,2.5c-1.62,1.67-2.42,4.22-2.42,7.66a19.24,19.24,0,0,0,.42,4.17,9.65,9.65,0,0,0,1.34,3.27,6.38,6.38,0,0,0,2.43,2.15A8.21,8.21,0,0,0,929.59,533.58Z"/><path class="cls-2" d="M973.6,533.16a14,14,0,0,1-2.26,1.59A16.76,16.76,0,0,1,968.5,536a20.79,20.79,0,0,1-3.22.82,20,20,0,0,1-3.37.29,15.15,15.15,0,0,1-5.64-1,10.94,10.94,0,0,1-4.09-2.82,12.27,12.27,0,0,1-2.5-4.38,18,18,0,0,1-.85-5.74,17.67,17.67,0,0,1,.93-6,11.18,11.18,0,0,1,6.94-7,15.85,15.85,0,0,1,5.58-.93,16.9,16.9,0,0,1,4.41.58,8.7,8.7,0,0,1,3.85,2.21,10.46,10.46,0,0,1,2.58,4.46,20.8,20.8,0,0,1,.64,7.37H953.24q0,4.79,2.57,7.15a9.8,9.8,0,0,0,6.87,2.36,11.92,11.92,0,0,0,2.84-.34,23.77,23.77,0,0,0,2.67-.83,14.42,14.42,0,0,0,2.26-1.06,10.27,10.27,0,0,0,1.51-1.06ZM962.41,512.8a14.11,14.11,0,0,0-3.31.37,7.49,7.49,0,0,0-2.76,1.25,6.82,6.82,0,0,0-2,2.28,9.21,9.21,0,0,0-1,3.49h16.48a8.21,8.21,0,0,0-2.25-5.45A7.14,7.14,0,0,0,962.41,512.8Z"/><path class="cls-2" d="M980.88,536.5v-3.56h7.18V513.49h-7.18v-3.56h9.94l.85,3.45h.27a19,19,0,0,1,4-2.82,11.32,11.32,0,0,1,5.32-1.17,5.42,5.42,0,0,1,2.89.69,4.57,4.57,0,0,1,1.7,2,10.3,10.3,0,0,1,.83,3.21,39.14,39.14,0,0,1,.21,4.28l-3.72,0a13.43,13.43,0,0,0-.67-4.95,2.39,2.39,0,0,0-2.41-1.58,8.75,8.75,0,0,0-3,.47,9.6,9.6,0,0,0-2.31,1.17,12.4,12.4,0,0,0-1.68,1.38,9.41,9.41,0,0,0-1,1.16v15.64h10.21v3.56Z"/><path class="cls-2" d="M1012.78,536.5v-3.56H1020V513.49h-7.17v-3.56h9.94l.85,3.45h.26a19.29,19.29,0,0,1,4.05-2.82,11.25,11.25,0,0,1,5.31-1.17,5.46,5.46,0,0,1,2.9.69,4.7,4.7,0,0,1,1.7,2,10.31,10.31,0,0,1,.82,3.21,39,39,0,0,1,.22,4.28l-3.73,0a13.69,13.69,0,0,0-.66-4.95,2.41,2.41,0,0,0-2.42-1.58,8.75,8.75,0,0,0-3,.47,10,10,0,0,0-2.31,1.17,12.92,12.92,0,0,0-1.67,1.38,8.61,8.61,0,0,0-1,1.16v15.64h10.2v3.56Z"/><path class="cls-2" d="M1057.7,532.41h2l6.59-22.48h4.3l-7.39,23.86c-.39,1.25-.78,2.65-1.19,4.23a20,20,0,0,1-1.73,4.44,10.62,10.62,0,0,1-3,3.51,8.15,8.15,0,0,1-5,1.43,7,7,0,0,1-1.46-.16,12.9,12.9,0,0,1-1.51-.4,9.68,9.68,0,0,1-1.38-.55,3.87,3.87,0,0,1-1-.64l1.49-3.83a4.13,4.13,0,0,0,.87.53,7.12,7.12,0,0,0,1.23.45c.44.13.87.23,1.3.32a5.33,5.33,0,0,0,1.06.14q4,0,5.42-6.76h-3.56l-11.16-26.57h4.78Z"/><path class="cls-2" d="M1085.44,533.58A3.27,3.27,0,0,1,1089,530a3.65,3.65,0,0,1,2.66.93,3.5,3.5,0,0,1,1,2.63,3.54,3.54,0,0,1-1,2.55,3.46,3.46,0,0,1-2.66,1,3.33,3.33,0,0,1-2.55-1A3.54,3.54,0,0,1,1085.44,533.58Z"/><path class="cls-2" d="M1128.29,514a22.77,22.77,0,0,0-2.63-.72,14.07,14.07,0,0,0-2.79-.29c-3.48,0-6.06.82-7.76,2.45s-2.56,4.23-2.56,7.78a11,11,0,0,0,.75,4.19,8.48,8.48,0,0,0,2.12,3.11,9.64,9.64,0,0,0,3.33,2,12.68,12.68,0,0,0,4.28.69,14,14,0,0,0,4.86-.87,12.07,12.07,0,0,0,4-2.27l1.86,3.09a16.56,16.56,0,0,1-1.86,1.33,18.21,18.21,0,0,1-2.58,1.3,17.63,17.63,0,0,1-3.24,1,18.7,18.7,0,0,1-3.85.37,17.44,17.44,0,0,1-6.09-1,11.7,11.7,0,0,1-4.39-2.82,12.1,12.1,0,0,1-2.65-4.41,17,17,0,0,1-.91-5.71,17.67,17.67,0,0,1,.93-6,11.24,11.24,0,0,1,6.94-7,15.93,15.93,0,0,1,5.58-.93,24.52,24.52,0,0,1,6.41.69,23.17,23.17,0,0,1,4.17,1.54l-.05.16v7.39h-3.83Z"/><path class="cls-2" d="M1139.88,523.22q0-6.44,3.35-10.18t9.56-3.75a13.88,13.88,0,0,1,5.77,1.09,11.35,11.35,0,0,1,4,3,12,12,0,0,1,2.36,4.41,18.66,18.66,0,0,1,.77,5.48,18.25,18.25,0,0,1-.85,5.76,12.06,12.06,0,0,1-2.5,4.39,11.16,11.16,0,0,1-4.06,2.79,14.67,14.67,0,0,1-5.51,1,14,14,0,0,1-5.74-1.09,11.25,11.25,0,0,1-4-2.95,12,12,0,0,1-2.36-4.41A18.59,18.59,0,0,1,1139.88,523.22Zm4.41,0a15.77,15.77,0,0,0,.45,3.72,10.31,10.31,0,0,0,1.46,3.35,7.53,7.53,0,0,0,2.62,2.39,8,8,0,0,0,4,.9,7.76,7.76,0,0,0,6.38-2.63q2.14-2.62,2.15-7.73a15.65,15.65,0,0,0-.45-3.75,10.07,10.07,0,0,0-1.48-3.32,7.93,7.93,0,0,0-2.65-2.4,8,8,0,0,0-4-.9q-4.24,0-6.36,2.6T1144.29,523.22Z"/><path class="cls-2" d="M1182.67,536.5V518.8c0-.74,0-1.46-.08-2.15a7.3,7.3,0,0,0-.37-1.86,3,3,0,0,0-.85-1.3,2.16,2.16,0,0,0-1.46-.48,3.85,3.85,0,0,0-3.06,1.49,10,10,0,0,0-1.89,3.72V536.5h-4V509.93h2.77l.79,3.24h.22c.35-.53.7-1,1-1.52a6.33,6.33,0,0,1,1.17-1.25,5.09,5.09,0,0,1,1.57-.82,7.69,7.69,0,0,1,2.29-.29,6,6,0,0,1,1.64.24,5,5,0,0,1,1.57.74,4.57,4.57,0,0,1,1.25,1.36,4.92,4.92,0,0,1,.69,2.07,11.33,11.33,0,0,1,2.74-3.24,6.67,6.67,0,0,1,4.17-1.17,6,6,0,0,1,2.85.58,4.23,4.23,0,0,1,1.7,1.68,7.87,7.87,0,0,1,.85,2.6,21.74,21.74,0,0,1,.24,3.38v19h-4V518.43a19.89,19.89,0,0,0-.11-2.1,6.56,6.56,0,0,0-.4-1.73,3,3,0,0,0-.79-1.17,2.07,2.07,0,0,0-1.36-.42,4,4,0,0,0-3.14,1.49,9.82,9.82,0,0,0-1.91,4.25V536.5Z"/></svg>