<svg id="Layer_1" data-name="Layer 1" xmlns="http://www.w3.org/2000/svg" viewBox="0 0 1500 700"><defs><style>.cls-1{fill:none;stroke:#fcfcfc;stroke-miterlimit:10;stroke-width:7px;}.cls-2,.cls-3,.cls-5,.cls-6{fill:#fff;}.cls-3{font-size:191.6392px;}.cls-3,.cls-5,.cls-6{font-family:PTMono-Regular, PT Mono;}.cls-4{fill:#f15a24;}.cls-5{font-size:63.7897px;}.cls-6{font-size:53.1581px;}</style></defs><title>gitbanner</title><rect y="0.7017" width="1501" height="701.6683"/><path class="cls-1" d="M110.241,335.8952c-2.0638,2.7251-5.9711,11.9423,6.5523,35.9871,3.63,18.753-9.6891,16.4668,4.0832,35.4867a7.4511,7.4511,0,0,1,1.4182,4.6068c-.3594,11.1267.636,56.4133,38.33,82.6355,32.5608,28.1776,37.57,38.1962,45.0841,46.9626a75.96,75.96,0,0,0,24.3584,18.3472c10.4128,4.8419,22.3347,4.0385,33.0452,1.2285A79.2379,79.2379,0,0,0,304.0287,534.6a463.5483,463.5483,0,0,1,36.9328-39.9888c13.0159-12.5085,21.6018-18.949,29.1517-32.1129,6.9632-12.141,11.5654-27.118,13.151-47.6191a5.7149,5.7149,0,0,1,3.0284-4.702c3.3632-1.6984,8.2063-8.3172,4.7623-33.2856,1.0478-9.43,11.3-21.0508,9.4877-34.13a18.9657,18.9657,0,0,0-4.3316-9.6235c-3.0819-3.64-9.07-12.9148-7.6607-28.8821,1.8785-21.29,8.14-75.14-31.3084-117.72s-141.5141-93.299-216.6542,14.4019c-28.1776,52.5981-21.9159,58.86-18.7851,108.3271-2.2241,17.2368-6.4232,18.6739-9.5282,23.6023C111.6267,333.896,110.9747,334.9264,110.241,335.8952Z"/><path class="cls-2" d="M111.7274,327.79c-.1144,4.8217,1.6464,6.72,3.06,8.2477a8.9778,8.9778,0,0,1,1.1435,1.4155,11.8632,11.8632,0,0,1,1.4071,4.1342c5.8265,35.3191,7.138,40.1333,21.9223,47.92,7.0769,3.7308,21.6285,6.2327,36.2055,6.2327,11.3668,0,27.7853-1.4963,41.4392-8.6182,19.8922-10.38,27.304-46.2094,27.6521-48.0124.02-.182.6069-4.4569,9.6951-4.4569h.0094l.5563-.0047c8.621,0,9.2148,4.28,9.2777,4.7411.3058,1.5235,7.7195,37.3473,27.6108,47.7328,13.6548,7.1267,30.0733,8.6183,41.44,8.6183,14.577,0,29.1258-2.5076,36.2037-6.2327,14.7862-7.7871,16.0976-12.606,21.9213-47.9251a11.9046,11.9046,0,0,1,1.409-4.1332,8.8065,8.8065,0,0,1,1.1417-1.4166c1.4137-1.5272,3.1773-3.4315,3.061-8.2476-.02-.8068.015-2.2421.0487-3.8153.0582-2.4024.1117-5.1079.0291-6.5656-.4174-7.1436-6.7383-10.0526-9.9193-10.57-20.3388-4.1774-44.7572-5.3875-70.5359-3.5366l-1.3462.0957c-15.7243,1.1125-24.3847,1.7242-34.7065,6.3461-2.3949,1.0741-4.8584,2.288-7.0394,3.4081a63.8,63.8,0,0,1-12.4982,4.8284c-1.212.27-2.4409.5347-3.5291.7532a20.0278,20.0278,0,0,1-6.1642,0c-1.0882-.2232-2.3171-.4831-3.5319-.7532a64.0142,64.0142,0,0,1-12.4934-4.8284c-2.1792-1.1191-4.6417-2.334-7.0385-3.4081-10.3218-4.6219-18.98-5.2336-34.7047-6.3461l-1.348-.0957c-25.7862-1.8453-50.2394-.6314-70.4346,3.5216-3.2767.5365-9.5938,3.4465-10.0113,10.59-.09,1.4569-.0309,4.1633.0244,6.5648C111.7124,325.5521,111.7462,326.99,111.7274,327.79Zm165.1591-1.1933c.9963-2.4728,7.2665-10.71,46.1662-12.9747,6.82-.3959,12.6052-.59,17.6868-.59,22.9372,0,30.2374,4.1238,34.58,10.7739,2.5994,3.9785,4.3668,12.3012,4.3865,17.577.0487,11.5216-2.2683,32.001-18.244,39.744-7.3208,3.546-18.2984,5.6642-29.3594,5.6642-21.2327,0-38.2046-7.2186-45.3894-19.304C271.5957,342.0944,276.7008,327.0193,276.8865,326.5962ZM133.28,323.8017c4.3481-6.653,11.6464-10.774,34.5808-10.774,5.0835,0,10.8687.1942,17.6886.59,38.8914,2.2683,45.1681,10.5066,46.2826,13.2665.06.136,5.1679,15.2168-9.9335,40.6043-7.1923,12.0854-24.1586,19.304-45.3885,19.304-11.0657,0-22.0441-2.1182-29.3669-5.6642-15.9766-7.743-18.2908-28.2224-18.2449-39.744C128.9179,336.1009,130.6834,327.78,133.28,323.8017Z"/><path class="cls-2" d="M216.0409,411.644s15.35-7.818,30.6823,9.3925a11.4871,11.4871,0,0,0,5.181,3.7108c.2258.0638.4427.1391.6589.1989a9.8045,9.8045,0,0,0,10.44-3.2835c3.7831-4.3919,17.22-16.3847,28.1776-7.514,0,0-16.28-2.5047-27.5514,9.3925-4.2155,5.6206-10.464,4.1759-13.7757,2.5047-1.0933-.5518-3.1759-2.3009-4.1921-2.9843C239.868,419.1653,228.4637,411.644,216.0409,411.644Z"/><path class="cls-2" d="M224.9,474.8222a1.9911,1.9911,0,0,1,.409-3.7391c3.7656-.8317,10.2914-1.5475,21.1016-.8924,20.6635,1.2524,26.8974-.3358,31.9346,0,.8311.0554,1.6034.13,2.3116.2164,1.9474.2363,2.22,2.5921.6287,3.7387-4.5058,3.2459-13.8828,7.2483-24.5431,7.629C241.8726,482.3059,232.9475,479.27,224.9,474.8222Z"/><text class="cls-3" transform="translate(586.9087 313.895)">Gerry</text><rect class="cls-4" x="1175.9235" y="181.1876" width="64.3376" height="132.231"/><text class="cls-5" transform="translate(435.1699 447.1367)">Software + Cloud + DevOps</text><text class="cls-6" transform="translate(626.5352 536.5049)">www.aboutgerry.com</text></svg>