<svg id="Layer_1" data-name="Layer 1" xmlns="http://www.w3.org/2000/svg" viewBox="0 0 1501 500"><defs><style>.cls-1{fill:none;stroke:#fcfcfc;stroke-miterlimit:10;stroke-width:7px;}.cls-2,.cls-3,.cls-5,.cls-6{fill:#fff;}.cls-3{font-size:180.25px;}.cls-3,.cls-5,.cls-6{font-family:PTMono-Regular, PT Mono;}.cls-4{fill:#f15a24;}.cls-5{font-size:60px;}.cls-6{font-size:50px;}</style></defs><title>gitbanner</title><rect width="1501" height="500"/><path class="cls-1" d="M148.25,236.73c-1.94,2.57-5.62,11.24,6.16,33.85,3.42,17.64-9.11,15.49,3.84,33.38a7,7,0,0,1,1.34,4.33c-.34,10.47.59,53.07,36,77.73C226.27,412.52,231,422,238,430.19A71.43,71.43,0,0,0,261,447.45c9.79,4.55,21,3.8,31.08,1.16a74.57,74.57,0,0,0,38.48-25A437.37,437.37,0,0,1,365.26,386c12.24-11.77,20.32-17.82,27.42-30.21,6.55-11.41,10.88-25.5,12.37-44.79a5.38,5.38,0,0,1,2.85-4.42c3.16-1.6,7.72-7.82,4.48-31.31,1-8.87,10.63-19.8,8.92-32.1a17.77,17.77,0,0,0-4.07-9.05C414.33,230.72,408.7,222,410,207c1.77-20,7.66-70.67-29.44-110.72S247.47,8.49,176.79,109.79c-26.5,49.48-20.61,55.37-17.67,101.9-2.09,16.21-6,17.56-9,22.2C149.55,234.85,148.94,235.82,148.25,236.73Z" transform="translate(0)"/><path class="cls-2" d="M149.65,229.11c-.11,4.53,1.55,6.32,2.87,7.76a8,8,0,0,1,1.08,1.33,11,11,0,0,1,1.32,3.89c5.48,33.22,6.72,37.75,20.62,45.07,6.66,3.51,20.35,5.86,34.06,5.86,10.69,0,26.13-1.4,39-8.1,18.71-9.77,25.68-43.47,26-45.16,0-.17.57-4.2,9.11-4.2h.54c8.11,0,8.66,4,8.72,4.46.29,1.43,7.26,35.13,26,44.9,12.85,6.7,28.29,8.1,39,8.1,13.71,0,27.4-2.36,34-5.86,13.91-7.32,15.15-11.86,20.62-45.08a11.14,11.14,0,0,1,1.33-3.89,8.91,8.91,0,0,1,1.07-1.33c1.33-1.43,3-3.23,2.88-7.76,0-.75,0-2.1.05-3.58,0-2.26.1-4.81,0-6.18-.39-6.72-6.33-9.45-9.33-9.94-19.13-3.93-42.09-5.07-66.34-3.33l-1.27.09c-14.79,1.05-22.93,1.62-32.64,6-2.25,1-4.57,2.15-6.62,3.21A60,60,0,0,1,290,219.88c-1.14.25-2.29.5-3.32.71a18.8,18.8,0,0,1-5.8,0l-3.32-.71a60.21,60.21,0,0,1-11.75-4.54c-2-1.06-4.36-2.2-6.62-3.21-9.71-4.35-17.85-4.92-32.64-6l-1.27-.09C201,204.34,178,205.48,159,209.38c-3.08.51-9,3.25-9.42,10-.08,1.38,0,3.92,0,6.18C149.63,227,149.66,228.36,149.65,229.11ZM305,228c.94-2.33,6.84-10.08,43.43-12.21,6.41-.37,11.85-.55,16.63-.55,21.58,0,28.44,3.88,32.53,10.13,2.44,3.74,4.11,11.57,4.12,16.53.05,10.84-2.13,30.1-17.16,37.39-6.88,3.33-17.21,5.32-27.61,5.32-20,0-35.94-6.78-42.69-18.15C300,242.56,304.82,228.38,305,228Zm-135.07-2.63c4.09-6.26,11-10.14,32.53-10.14,4.78,0,10.22.19,16.63.56,36.58,2.13,42.49,9.88,43.54,12.48.05.13,4.86,14.31-9.35,38.19-6.76,11.37-22.72,18.16-42.69,18.16-10.41,0-20.73-2-27.62-5.33-15-7.28-17.21-26.55-17.16-37.38C165.82,236.93,167.48,229.1,169.92,225.36Z" transform="translate(0)"/><path class="cls-2" d="M247.76,308s14.44-7.35,28.86,8.84a10.89,10.89,0,0,0,4.88,3.49c.21.06.41.13.62.18a9.22,9.22,0,0,0,9.82-3.08c3.55-4.14,16.19-15.42,26.5-7.07,0,0-15.31-2.36-25.92,8.83-4,5.29-9.84,3.93-12.95,2.36-1-.52-3-2.17-3.95-2.81C270.17,315.06,259.45,308,247.76,308Z" transform="translate(0)"/><path class="cls-2" d="M256.1,367.41a1.87,1.87,0,0,1,.38-3.52c3.54-.78,9.68-1.46,19.85-.84,19.43,1.18,25.3-.32,30,0,.78.05,1.5.12,2.17.2,1.83.23,2.09,2.44.59,3.52-4.24,3.05-13.06,6.82-23.08,7.18C272.06,374.45,263.67,371.59,256.1,367.41Z" transform="translate(0)"/><text class="cls-3" transform="translate(596.6 216.04)">Gerry</text><rect class="cls-4" x="1150.62" y="91.22" width="60.52" height="124.38"/><text class="cls-5" transform="translate(453.87 341.36)">Software + Cloud + DevOps</text><text class="cls-6" transform="translate(633.87 425.42)">www.aboutgerry.com</text></svg>